<svg width="34" height="34" viewBox="0 0 34 34" fill="none" xmlns="http://www.w3.org/2000/svg">
<mask id="mask0_117_1261" style="mask-type:alpha" maskUnits="userSpaceOnUse" x="0" y="0" width="34" height="34">
<rect width="34" height="34" fill="#D9D9D9"/>
</mask>
<g mask="url(#mask0_117_1261)">
<path d="M7.08333 31.1697C6.30417 31.1697 5.63715 30.8923 5.08229 30.3374C4.52743 29.7826 4.25 29.1156 4.25 28.3364V8.50309C4.25 7.72392 4.52743 7.05691 5.08229 6.50205C5.63715 5.94719 6.30417 5.66976 7.08333 5.66976H8.5V2.83643H11.3333V5.66976H22.6667V2.83643H25.5V5.66976H26.9167C27.6958 5.66976 28.3628 5.94719 28.9177 6.50205C29.4726 7.05691 29.75 7.72392 29.75 8.50309V28.3364C29.75 29.1156 29.4726 29.7826 28.9177 30.3374C28.3628 30.8923 27.6958 31.1697 26.9167 31.1697H7.08333ZM7.08333 28.3364H26.9167V14.1697H7.08333V28.3364ZM7.08333 11.3364H26.9167V8.50309H7.08333V11.3364Z" fill="#8F9BB3"/>
</g>
</svg>
