<svg width="32" height="32" viewBox="0 0 32 32" fill="none" xmlns="http://www.w3.org/2000/svg">
<mask id="mask0_366_271" style="mask-type:alpha" maskUnits="userSpaceOnUse" x="0" y="0" width="32" height="32">
<rect width="32" height="32" fill="#D9D9D9"/>
</mask>
<g mask="url(#mask0_366_271)">
<path d="M15.9998 29.3334C14.1776 29.3334 12.4554 28.9834 10.8332 28.2834C9.21095 27.5834 7.79428 26.6279 6.58317 25.4167C5.37206 24.2056 4.4165 22.789 3.7165 21.1667C3.0165 19.5445 2.6665 17.8223 2.6665 16.0001C2.6665 14.1556 3.02761 12.4223 3.74984 10.8001C4.47206 9.17786 5.44984 7.76675 6.68317 6.56675C7.9165 5.36675 9.35539 4.41675 10.9998 3.71675C12.6443 3.01675 14.3998 2.66675 16.2665 2.66675C18.0443 2.66675 19.7221 2.9723 21.2998 3.58341C22.8776 4.19453 24.2609 5.03897 25.4498 6.11675C26.6387 7.19453 27.5832 8.4723 28.2832 9.95008C28.9832 11.4279 29.3332 13.0223 29.3332 14.7334C29.3332 17.289 28.5554 19.2501 26.9998 20.6167C25.4443 21.9834 23.5554 22.6667 21.3332 22.6667H18.8665C18.6665 22.6667 18.5276 22.7223 18.4498 22.8334C18.3721 22.9445 18.3332 23.0667 18.3332 23.2001C18.3332 23.4667 18.4998 23.8501 18.8332 24.3501C19.1665 24.8501 19.3332 25.4223 19.3332 26.0667C19.3332 27.1779 19.0276 28.0001 18.4165 28.5334C17.8054 29.0667 16.9998 29.3334 15.9998 29.3334ZM8.6665 17.3334C9.24428 17.3334 9.72206 17.1445 10.0998 16.7667C10.4776 16.389 10.6665 15.9112 10.6665 15.3334C10.6665 14.7556 10.4776 14.2779 10.0998 13.9001C9.72206 13.5223 9.24428 13.3334 8.6665 13.3334C8.08873 13.3334 7.61095 13.5223 7.23317 13.9001C6.85539 14.2779 6.6665 14.7556 6.6665 15.3334C6.6665 15.9112 6.85539 16.389 7.23317 16.7667C7.61095 17.1445 8.08873 17.3334 8.6665 17.3334ZM12.6665 12.0001C13.2443 12.0001 13.7221 11.8112 14.0998 11.4334C14.4776 11.0556 14.6665 10.5779 14.6665 10.0001C14.6665 9.4223 14.4776 8.94453 14.0998 8.56675C13.7221 8.18897 13.2443 8.00008 12.6665 8.00008C12.0887 8.00008 11.6109 8.18897 11.2332 8.56675C10.8554 8.94453 10.6665 9.4223 10.6665 10.0001C10.6665 10.5779 10.8554 11.0556 11.2332 11.4334C11.6109 11.8112 12.0887 12.0001 12.6665 12.0001ZM19.3332 12.0001C19.9109 12.0001 20.3887 11.8112 20.7665 11.4334C21.1443 11.0556 21.3332 10.5779 21.3332 10.0001C21.3332 9.4223 21.1443 8.94453 20.7665 8.56675C20.3887 8.18897 19.9109 8.00008 19.3332 8.00008C18.7554 8.00008 18.2776 8.18897 17.8998 8.56675C17.5221 8.94453 17.3332 9.4223 17.3332 10.0001C17.3332 10.5779 17.5221 11.0556 17.8998 11.4334C18.2776 11.8112 18.7554 12.0001 19.3332 12.0001ZM23.3332 17.3334C23.9109 17.3334 24.3887 17.1445 24.7665 16.7667C25.1443 16.389 25.3332 15.9112 25.3332 15.3334C25.3332 14.7556 25.1443 14.2779 24.7665 13.9001C24.3887 13.5223 23.9109 13.3334 23.3332 13.3334C22.7554 13.3334 22.2776 13.5223 21.8998 13.9001C21.5221 14.2779 21.3332 14.7556 21.3332 15.3334C21.3332 15.9112 21.5221 16.389 21.8998 16.7667C22.2776 17.1445 22.7554 17.3334 23.3332 17.3334ZM15.9998 26.6667C16.1998 26.6667 16.3609 26.6112 16.4832 26.5001C16.6054 26.389 16.6665 26.2445 16.6665 26.0667C16.6665 25.7556 16.4998 25.389 16.1665 24.9667C15.8332 24.5445 15.6665 23.9112 15.6665 23.0667C15.6665 22.1334 15.9887 21.389 16.6332 20.8334C17.2776 20.2779 18.0665 20.0001 18.9998 20.0001H21.3332C22.7998 20.0001 24.0554 19.5723 25.0998 18.7167C26.1443 17.8612 26.6665 16.5334 26.6665 14.7334C26.6665 12.0445 25.6387 9.80564 23.5832 8.01675C21.5276 6.22786 19.0887 5.33341 16.2665 5.33341C13.2443 5.33341 10.6665 6.36675 8.53317 8.43341C6.39984 10.5001 5.33317 13.0223 5.33317 16.0001C5.33317 18.9556 6.37206 21.4723 8.44984 23.5501C10.5276 25.6279 13.0443 26.6667 15.9998 26.6667Z" fill="#8F9BB3"/>
</g>
</svg>
