<svg width="25" height="25" viewBox="0 0 25 25" fill="none" xmlns="http://www.w3.org/2000/svg">
<mask id="mask0_385_205" style="mask-type:alpha" maskUnits="userSpaceOnUse" x="0" y="0" width="25" height="25">
<rect x="0.176636" y="0.755371" width="24" height="24" fill="#D9D9D9"/>
</mask>
<g mask="url(#mask0_385_205)">
<path d="M7.17664 21.7554C6.62664 21.7554 6.1558 21.5595 5.76414 21.1679C5.37247 20.7762 5.17664 20.3054 5.17664 19.7554V6.75537H4.17664V4.75537H9.17664V3.75537H15.1766V4.75537H20.1766V6.75537H19.1766V19.7554C19.1766 20.3054 18.9808 20.7762 18.5891 21.1679C18.1975 21.5595 17.7266 21.7554 17.1766 21.7554H7.17664ZM17.1766 6.75537H7.17664V19.7554H17.1766V6.75537ZM9.17664 17.7554H11.1766V8.75537H9.17664V17.7554ZM13.1766 17.7554H15.1766V8.75537H13.1766V17.7554Z" fill="#1C1B1F"/>
</g>
</svg>
