<svg width="25" height="25" viewBox="0 0 25 25" fill="none" xmlns="http://www.w3.org/2000/svg">
<mask id="mask0_398_229" style="mask-type:alpha" maskUnits="userSpaceOnUse" x="0" y="0" width="25" height="25">
<rect x="0.799561" y="0.373047" width="24" height="24" fill="#D9D9D9"/>
</mask>
<g mask="url(#mask0_398_229)">
<path d="M13.2996 12.323C13.7829 11.7897 14.1537 11.1814 14.4121 10.498C14.6704 9.81471 14.7996 9.10638 14.7996 8.37305C14.7996 7.63971 14.6704 6.93138 14.4121 6.24805C14.1537 5.56471 13.7829 4.95638 13.2996 4.42305C14.2996 4.55638 15.1329 4.99805 15.7996 5.74805C16.4662 6.49805 16.7996 7.37305 16.7996 8.37305C16.7996 9.37305 16.4662 10.248 15.7996 10.998C15.1329 11.748 14.2996 12.1897 13.2996 12.323ZM18.7996 20.373V17.373C18.7996 16.773 18.6662 16.2022 18.3996 15.6605C18.1329 15.1189 17.7829 14.6397 17.3496 14.223C18.1996 14.523 18.9871 14.9105 19.7121 15.3855C20.4371 15.8605 20.7996 16.523 20.7996 17.373V20.373H18.7996ZM20.7996 13.373V11.373H18.7996V9.37305H20.7996V7.37305H22.7996V9.37305H24.7996V11.373H22.7996V13.373H20.7996ZM8.79956 12.373C7.69956 12.373 6.75789 11.9814 5.97456 11.198C5.19123 10.4147 4.79956 9.47305 4.79956 8.37305C4.79956 7.27305 5.19123 6.33138 5.97456 5.54805C6.75789 4.76471 7.69956 4.37305 8.79956 4.37305C9.89956 4.37305 10.8412 4.76471 11.6246 5.54805C12.4079 6.33138 12.7996 7.27305 12.7996 8.37305C12.7996 9.47305 12.4079 10.4147 11.6246 11.198C10.8412 11.9814 9.89956 12.373 8.79956 12.373ZM0.799561 20.373V17.573C0.799561 17.0064 0.945394 16.4855 1.23706 16.0105C1.52873 15.5355 1.91623 15.173 2.39956 14.923C3.43289 14.4064 4.48289 14.0189 5.54956 13.7605C6.61623 13.5022 7.69956 13.373 8.79956 13.373C9.89956 13.373 10.9829 13.5022 12.0496 13.7605C13.1162 14.0189 14.1662 14.4064 15.1996 14.923C15.6829 15.173 16.0704 15.5355 16.3621 16.0105C16.6537 16.4855 16.7996 17.0064 16.7996 17.573V20.373H0.799561ZM8.79956 10.373C9.34956 10.373 9.82039 10.1772 10.2121 9.78555C10.6037 9.39388 10.7996 8.92305 10.7996 8.37305C10.7996 7.82305 10.6037 7.35221 10.2121 6.96055C9.82039 6.56888 9.34956 6.37305 8.79956 6.37305C8.24956 6.37305 7.77873 6.56888 7.38706 6.96055C6.99539 7.35221 6.79956 7.82305 6.79956 8.37305C6.79956 8.92305 6.99539 9.39388 7.38706 9.78555C7.77873 10.1772 8.24956 10.373 8.79956 10.373ZM2.79956 18.373H14.7996V17.573C14.7996 17.3897 14.7537 17.223 14.6621 17.073C14.5704 16.923 14.4496 16.8064 14.2996 16.723C13.3996 16.273 12.4912 15.9355 11.5746 15.7105C10.6579 15.4855 9.73289 15.373 8.79956 15.373C7.86623 15.373 6.94123 15.4855 6.02456 15.7105C5.10789 15.9355 4.19956 16.273 3.29956 16.723C3.14956 16.8064 3.02873 16.923 2.93706 17.073C2.84539 17.223 2.79956 17.3897 2.79956 17.573V18.373Z" fill="#1C1B1F"/>
</g>
</svg>
