<svg width="34" height="34" viewBox="0 0 34 34" fill="none" xmlns="http://www.w3.org/2000/svg">
<mask id="mask0_117_725" style="mask-type:alpha" maskUnits="userSpaceOnUse" x="0" y="0" width="34" height="34">
<rect width="34" height="34" fill="#D9D9D9"/>
</mask>
<g mask="url(#mask0_117_725)">
<path d="M1.4043 24.3636C1.4043 23.5608 1.61089 22.823 2.02409 22.15C2.43728 21.4771 2.98624 20.9636 3.67096 20.6094C5.13485 19.8775 6.62235 19.3285 8.13346 18.9625C9.64457 18.5966 11.1793 18.4136 12.7376 18.4136C14.296 18.4136 15.8307 18.5966 17.3418 18.9625C18.8529 19.3285 20.3404 19.8775 21.8043 20.6094C22.489 20.9636 23.038 21.4771 23.4512 22.15C23.8644 22.823 24.071 23.5608 24.071 24.3636V25.4969C24.071 26.2761 23.7935 26.9431 23.2387 27.498C22.6838 28.0528 22.0168 28.3302 21.2376 28.3302H4.23763C3.45846 28.3302 2.79145 28.0528 2.23659 27.498C1.68173 26.9431 1.4043 26.2761 1.4043 25.4969V24.3636ZM29.7376 28.3302H26.1251C26.3849 27.9052 26.5796 27.4507 26.7095 26.9667C26.8394 26.4827 26.9043 25.9927 26.9043 25.4969V24.0802C26.9043 23.0414 26.6151 22.0438 26.0366 21.0875C25.4581 20.1313 24.6376 19.3108 23.5751 18.6261C24.7793 18.7677 25.9126 19.0098 26.9751 19.3521C28.0376 19.6945 29.0293 20.1136 29.9501 20.6094C30.8001 21.0816 31.4494 21.607 31.898 22.1855C32.3467 22.7639 32.571 23.3955 32.571 24.0802V25.4969C32.571 26.2761 32.2935 26.9431 31.7387 27.498C31.1838 28.0528 30.5168 28.3302 29.7376 28.3302ZM12.7376 16.9969C11.1793 16.9969 9.84527 16.442 8.73555 15.3323C7.62582 14.2226 7.07096 12.8886 7.07096 11.3302C7.07096 9.77191 7.62582 8.43788 8.73555 7.32816C9.84527 6.21844 11.1793 5.66357 12.7376 5.66357C14.296 5.66357 15.63 6.21844 16.7397 7.32816C17.8494 8.43788 18.4043 9.77191 18.4043 11.3302C18.4043 12.8886 17.8494 14.2226 16.7397 15.3323C15.63 16.442 14.296 16.9969 12.7376 16.9969ZM26.9043 11.3302C26.9043 12.8886 26.3494 14.2226 25.2397 15.3323C24.13 16.442 22.796 16.9969 21.2376 16.9969C20.9779 16.9969 20.6474 16.9674 20.246 16.9084C19.8446 16.8493 19.514 16.7844 19.2543 16.7136C19.8918 15.958 20.3817 15.1198 20.7241 14.199C21.0664 13.2782 21.2376 12.3219 21.2376 11.3302C21.2376 10.3386 21.0664 9.38232 20.7241 8.46149C20.3817 7.54066 19.8918 6.70246 19.2543 5.94691C19.5849 5.82885 19.9154 5.75212 20.246 5.7167C20.5765 5.68128 20.9071 5.66357 21.2376 5.66357C22.796 5.66357 24.13 6.21844 25.2397 7.32816C26.3494 8.43788 26.9043 9.77191 26.9043 11.3302ZM4.23763 25.4969H21.2376V24.3636C21.2376 24.1039 21.1727 23.8677 21.0428 23.6552C20.913 23.4427 20.7418 23.2775 20.5293 23.1594C19.2543 22.5219 17.9675 22.0438 16.6689 21.725C15.3703 21.4063 14.0599 21.2469 12.7376 21.2469C11.4154 21.2469 10.105 21.4063 8.80638 21.725C7.50777 22.0438 6.22096 22.5219 4.94596 23.1594C4.73346 23.2775 4.56228 23.4427 4.43242 23.6552C4.30256 23.8677 4.23763 24.1039 4.23763 24.3636V25.4969ZM12.7376 14.1636C13.5168 14.1636 14.1838 13.8861 14.7387 13.3313C15.2935 12.7764 15.571 12.1094 15.571 11.3302C15.571 10.5511 15.2935 9.88406 14.7387 9.3292C14.1838 8.77434 13.5168 8.49691 12.7376 8.49691C11.9585 8.49691 11.2914 8.77434 10.7366 9.3292C10.1817 9.88406 9.9043 10.5511 9.9043 11.3302C9.9043 12.1094 10.1817 12.7764 10.7366 13.3313C11.2914 13.8861 11.9585 14.1636 12.7376 14.1636Z" fill="#8F9BB3"/>
</g>
</svg>
