<svg width="26" height="26" viewBox="0 0 26 26" fill="none" xmlns="http://www.w3.org/2000/svg">
<mask id="mask0_117_629" style="mask-type:alpha" maskUnits="userSpaceOnUse" x="0" y="0" width="26" height="26">
<rect width="26" height="26" fill="#D9D9D9"/>
</mask>
<g mask="url(#mask0_117_629)">
<path d="M5.41667 23.8332C4.82083 23.8332 4.31076 23.621 3.88646 23.1967C3.46215 22.7724 3.25 22.2623 3.25 21.6665V6.49984C3.25 5.904 3.46215 5.39393 3.88646 4.96963C4.31076 4.54532 4.82083 4.33317 5.41667 4.33317H6.5V2.1665H8.66667V4.33317H17.3333V2.1665H19.5V4.33317H20.5833C21.1792 4.33317 21.6892 4.54532 22.1135 4.96963C22.5378 5.39393 22.75 5.904 22.75 6.49984V21.6665C22.75 22.2623 22.5378 22.7724 22.1135 23.1967C21.6892 23.621 21.1792 23.8332 20.5833 23.8332H5.41667ZM5.41667 21.6665H20.5833V10.8332H5.41667V21.6665ZM5.41667 8.6665H20.5833V6.49984H5.41667V8.6665ZM13 15.1665C12.6931 15.1665 12.4358 15.0627 12.2281 14.855C12.0205 14.6474 11.9167 14.3901 11.9167 14.0832C11.9167 13.7762 12.0205 13.5189 12.2281 13.3113C12.4358 13.1037 12.6931 12.9998 13 12.9998C13.3069 12.9998 13.5642 13.1037 13.7719 13.3113C13.9795 13.5189 14.0833 13.7762 14.0833 14.0832C14.0833 14.3901 13.9795 14.6474 13.7719 14.855C13.5642 15.0627 13.3069 15.1665 13 15.1665ZM8.66667 15.1665C8.35972 15.1665 8.10243 15.0627 7.89479 14.855C7.68715 14.6474 7.58333 14.3901 7.58333 14.0832C7.58333 13.7762 7.68715 13.5189 7.89479 13.3113C8.10243 13.1037 8.35972 12.9998 8.66667 12.9998C8.97361 12.9998 9.2309 13.1037 9.43854 13.3113C9.64618 13.5189 9.75 13.7762 9.75 14.0832C9.75 14.3901 9.64618 14.6474 9.43854 14.855C9.2309 15.0627 8.97361 15.1665 8.66667 15.1665ZM17.3333 15.1665C17.0264 15.1665 16.7691 15.0627 16.5615 14.855C16.3538 14.6474 16.25 14.3901 16.25 14.0832C16.25 13.7762 16.3538 13.5189 16.5615 13.3113C16.7691 13.1037 17.0264 12.9998 17.3333 12.9998C17.6403 12.9998 17.8976 13.1037 18.1052 13.3113C18.3128 13.5189 18.4167 13.7762 18.4167 14.0832C18.4167 14.3901 18.3128 14.6474 18.1052 14.855C17.8976 15.0627 17.6403 15.1665 17.3333 15.1665ZM13 19.4998C12.6931 19.4998 12.4358 19.396 12.2281 19.1884C12.0205 18.9807 11.9167 18.7234 11.9167 18.4165C11.9167 18.1096 12.0205 17.8523 12.2281 17.6446C12.4358 17.437 12.6931 17.3332 13 17.3332C13.3069 17.3332 13.5642 17.437 13.7719 17.6446C13.9795 17.8523 14.0833 18.1096 14.0833 18.4165C14.0833 18.7234 13.9795 18.9807 13.7719 19.1884C13.5642 19.396 13.3069 19.4998 13 19.4998ZM8.66667 19.4998C8.35972 19.4998 8.10243 19.396 7.89479 19.1884C7.68715 18.9807 7.58333 18.7234 7.58333 18.4165C7.58333 18.1096 7.68715 17.8523 7.89479 17.6446C8.10243 17.437 8.35972 17.3332 8.66667 17.3332C8.97361 17.3332 9.2309 17.437 9.43854 17.6446C9.64618 17.8523 9.75 18.1096 9.75 18.4165C9.75 18.7234 9.64618 18.9807 9.43854 19.1884C9.2309 19.396 8.97361 19.4998 8.66667 19.4998ZM17.3333 19.4998C17.0264 19.4998 16.7691 19.396 16.5615 19.1884C16.3538 18.9807 16.25 18.7234 16.25 18.4165C16.25 18.1096 16.3538 17.8523 16.5615 17.6446C16.7691 17.437 17.0264 17.3332 17.3333 17.3332C17.6403 17.3332 17.8976 17.437 18.1052 17.6446C18.3128 17.8523 18.4167 18.1096 18.4167 18.4165C18.4167 18.7234 18.3128 18.9807 18.1052 19.1884C17.8976 19.396 17.6403 19.4998 17.3333 19.4998Z" fill="#222B45"/>
</g>
</svg>
