<svg width="34" height="34" viewBox="0 0 34 34" fill="none" xmlns="http://www.w3.org/2000/svg">
<mask id="mask0_117_728" style="mask-type:alpha" maskUnits="userSpaceOnUse" x="0" y="0" width="34" height="34">
<rect width="34" height="34" fill="#D9D9D9"/>
</mask>
<g mask="url(#mask0_117_728)">
<path d="M7.07096 26.9197C6.66957 26.9197 6.33312 26.784 6.06159 26.5124C5.79006 26.2409 5.6543 25.9045 5.6543 25.5031C5.6543 25.1017 5.79006 24.7652 6.06159 24.4937C6.33312 24.2222 6.66957 24.0864 7.07096 24.0864H8.48763V14.1697C8.48763 12.21 9.07791 10.4687 10.2585 8.9458C11.439 7.42288 12.9737 6.42531 14.8626 5.95309V4.96142C14.8626 4.37115 15.0692 3.86941 15.4824 3.45622C15.8956 3.04302 16.3974 2.83643 16.9876 2.83643C17.5779 2.83643 18.0796 3.04302 18.4928 3.45622C18.906 3.86941 19.1126 4.37115 19.1126 4.96142V5.95309C21.0015 6.42531 22.5362 7.42288 23.7168 8.9458C24.8974 10.4687 25.4876 12.21 25.4876 14.1697V24.0864H26.9043C27.3057 24.0864 27.6421 24.2222 27.9137 24.4937C28.1852 24.7652 28.321 25.1017 28.321 25.5031C28.321 25.9045 28.1852 26.2409 27.9137 26.5124C27.6421 26.784 27.3057 26.9197 26.9043 26.9197H7.07096ZM16.9876 31.1697C16.2085 31.1697 15.5415 30.8923 14.9866 30.3374C14.4317 29.7826 14.1543 29.1156 14.1543 28.3364H19.821C19.821 29.1156 19.5435 29.7826 18.9887 30.3374C18.4338 30.8923 17.7668 31.1697 16.9876 31.1697ZM11.321 24.0864H22.6543V14.1697C22.6543 12.6114 22.0994 11.2774 20.9897 10.1677C19.88 9.05795 18.546 8.50309 16.9876 8.50309C15.4293 8.50309 14.0953 9.05795 12.9855 10.1677C11.8758 11.2774 11.321 12.6114 11.321 14.1697V24.0864Z" fill="#8F9BB3"/>
</g>
</svg>
