<svg width="25" height="25" viewBox="0 0 25 25" fill="none" xmlns="http://www.w3.org/2000/svg">
<mask id="mask0_392_217" style="mask-type:alpha" maskUnits="userSpaceOnUse" x="0" y="0" width="25" height="25">
<rect x="0.432251" y="0.387207" width="24" height="24" fill="#D9D9D9"/>
</mask>
<g mask="url(#mask0_392_217)">
<path d="M16.4323 11.3872V9.38721H22.4323V11.3872H16.4323ZM9.43225 12.3872C8.33225 12.3872 7.39058 11.9955 6.60725 11.2122C5.82392 10.4289 5.43225 9.48721 5.43225 8.38721C5.43225 7.28721 5.82392 6.34554 6.60725 5.56221C7.39058 4.77887 8.33225 4.38721 9.43225 4.38721C10.5323 4.38721 11.4739 4.77887 12.2573 5.56221C13.0406 6.34554 13.4323 7.28721 13.4323 8.38721C13.4323 9.48721 13.0406 10.4289 12.2573 11.2122C11.4739 11.9955 10.5323 12.3872 9.43225 12.3872ZM1.43225 20.3872V17.5872C1.43225 17.0205 1.57808 16.4997 1.86975 16.0247C2.16142 15.5497 2.54892 15.1872 3.03225 14.9372C4.06558 14.4205 5.11558 14.033 6.18225 13.7747C7.24892 13.5164 8.33225 13.3872 9.43225 13.3872C10.5323 13.3872 11.6156 13.5164 12.6823 13.7747C13.7489 14.033 14.7989 14.4205 15.8323 14.9372C16.3156 15.1872 16.7031 15.5497 16.9948 16.0247C17.2864 16.4997 17.4323 17.0205 17.4323 17.5872V20.3872H1.43225ZM3.43225 18.3872H15.4323V17.5872C15.4323 17.4039 15.3864 17.2372 15.2948 17.0872C15.2031 16.9372 15.0823 16.8205 14.9323 16.7372C14.0323 16.2872 13.1239 15.9497 12.2073 15.7247C11.2906 15.4997 10.3656 15.3872 9.43225 15.3872C8.49892 15.3872 7.57392 15.4997 6.65725 15.7247C5.74058 15.9497 4.83225 16.2872 3.93225 16.7372C3.78225 16.8205 3.66142 16.9372 3.56975 17.0872C3.47808 17.2372 3.43225 17.4039 3.43225 17.5872V18.3872ZM9.43225 10.3872C9.98225 10.3872 10.4531 10.1914 10.8448 9.79971C11.2364 9.40804 11.4323 8.93721 11.4323 8.38721C11.4323 7.83721 11.2364 7.36637 10.8448 6.97471C10.4531 6.58304 9.98225 6.38721 9.43225 6.38721C8.88225 6.38721 8.41142 6.58304 8.01975 6.97471C7.62808 7.36637 7.43225 7.83721 7.43225 8.38721C7.43225 8.93721 7.62808 9.40804 8.01975 9.79971C8.41142 10.1914 8.88225 10.3872 9.43225 10.3872Z" fill="#1C1B1F"/>
</g>
</svg>
