<svg width="24" height="24" viewBox="0 0 24 24" fill="none" xmlns="http://www.w3.org/2000/svg">
<mask id="mask0_72_740" style="mask-type:alpha" maskUnits="userSpaceOnUse" x="0" y="0" width="24" height="24">
<rect width="24" height="24" fill="#D9D9D9"/>
</mask>
<g mask="url(#mask0_72_740)">
<path d="M11.9995 22.0001C10.2328 22.0001 8.79118 21.721 7.67451 21.1626C6.55785 20.6043 5.99951 19.8835 5.99951 19.0001C5.99951 18.6001 6.12035 18.2293 6.36201 17.8876C6.60368 17.546 6.94118 17.2501 7.37451 17.0001L8.94951 18.4751C8.79951 18.5418 8.63701 18.6168 8.46201 18.7001C8.28701 18.7835 8.14951 18.8835 8.04951 19.0001C8.26618 19.2668 8.76618 19.5001 9.54951 19.7001C10.3328 19.9001 11.1495 20.0001 11.9995 20.0001C12.8495 20.0001 13.6703 19.9001 14.462 19.7001C15.2537 19.5001 15.7578 19.2668 15.9745 19.0001C15.8578 18.8668 15.7078 18.7585 15.5245 18.6751C15.3412 18.5918 15.1662 18.5168 14.9995 18.4501L16.5495 16.9501C17.0162 17.2168 17.3745 17.521 17.6245 17.8626C17.8745 18.2043 17.9995 18.5835 17.9995 19.0001C17.9995 19.8835 17.4412 20.6043 16.3245 21.1626C15.2078 21.721 13.7662 22.0001 11.9995 22.0001ZM12.0245 16.5001C13.6745 15.2835 14.9162 14.0626 15.7495 12.8376C16.5828 11.6126 16.9995 10.3835 16.9995 9.15012C16.9995 7.45012 16.4578 6.16679 15.3745 5.30012C14.2912 4.43346 13.1662 4.00012 11.9995 4.00012C10.8328 4.00012 9.70785 4.43346 8.62451 5.30012C7.54118 6.16679 6.99951 7.45012 6.99951 9.15012C6.99951 10.2668 7.40785 11.4293 8.22451 12.6376C9.04118 13.846 10.3078 15.1335 12.0245 16.5001ZM11.9995 19.0001C9.64951 17.2668 7.89535 15.5835 6.73701 13.9501C5.57868 12.3168 4.99951 10.7168 4.99951 9.15012C4.99951 7.96679 5.21201 6.92929 5.63701 6.03762C6.06201 5.14596 6.60785 4.40012 7.27451 3.80012C7.94118 3.20012 8.69118 2.75012 9.52451 2.45012C10.3578 2.15012 11.1828 2.00012 11.9995 2.00012C12.8162 2.00012 13.6412 2.15012 14.4745 2.45012C15.3078 2.75012 16.0578 3.20012 16.7245 3.80012C17.3912 4.40012 17.937 5.14596 18.362 6.03762C18.787 6.92929 18.9995 7.96679 18.9995 9.15012C18.9995 10.7168 18.4203 12.3168 17.262 13.9501C16.1037 15.5835 14.3495 17.2668 11.9995 19.0001ZM11.9995 11.0001C12.5495 11.0001 13.0203 10.8043 13.412 10.4126C13.8037 10.021 13.9995 9.55012 13.9995 9.00012C13.9995 8.45012 13.8037 7.97929 13.412 7.58762C13.0203 7.19596 12.5495 7.00012 11.9995 7.00012C11.4495 7.00012 10.9787 7.19596 10.587 7.58762C10.1953 7.97929 9.99951 8.45012 9.99951 9.00012C9.99951 9.55012 10.1953 10.021 10.587 10.4126C10.9787 10.8043 11.4495 11.0001 11.9995 11.0001Z" fill="#8F9BB3"/>
</g>
</svg>
