<svg width="6" height="6" viewBox="0 0 6 6" fill="none" xmlns="http://www.w3.org/2000/svg">
<path d="M4.31264 0.146447C4.5079 -0.0488127 4.8244 -0.048807 5.01967 0.146447C5.21493 0.341709 5.21493 0.658216 5.01967 0.853478L3.29018 2.58199L5.02064 4.31246L5.0851 4.39059C5.21299 4.58454 5.19118 4.8487 5.02064 5.01949C4.8499 5.19024 4.58578 5.21181 4.39174 5.08395L4.31361 5.01949L2.58314 3.28902L0.853652 5.01949L0.775527 5.08395C0.581464 5.21199 0.317435 5.19031 0.146621 5.01949C-0.0241857 4.84868 -0.0458707 4.58465 0.0821676 4.39059L0.146621 4.31246L1.87611 2.58199L0.146621 0.853478C-0.0485684 0.658289 -0.0484224 0.341726 0.146621 0.146447C0.341883 -0.0488155 0.65839 -0.0488155 0.853652 0.146447L2.58314 1.87496L4.31264 0.146447Z" fill="#FF0022"/>
</svg>
